# xmcd CD database file
# Copyright (C) 1993-1998 Ti Kan
#
# Track frame offsets:
#	150
#	14493
#	26658
#	40078
#	56655
#	71385
#	82405
#	97925
#	111950
#	125150
#	143138
#	156820
#	169678
#	181678
#
# Disc length: 2600 seconds
#
# Revision: 1
# Processed by: cddbd v1.4b41PL1 Copyright (c) Steve Scherf et al.
# Submitted via: QuintessentialCD v1.1 (c) 1998 Paul Quinn
#
DISCID=bb0a260e
DTITLE=Billy Mata - Made In Texas
DYEAR=1900
DGENRE=
TTITLE0=Tossin' And Turnin'
TTITLE1=No Such Thing As A Little Heartache
TTITLE2=Navaho Rug
TTITLE3=A Girl Like Emmy Lou
TTITLE4=Easy To Hold
TTITLE5=Take Me Back To Tulsa
TTITLE6=If This Was Texas
TTITLE7=Take The Fall
TTITLE8=Till The Real Thing Comes Along
TTITLE9=Bloodshot Eyes
TTITLE10=Heartbreaker
TTITLE11=Honky Tonk Stardust Cowboy
TTITLE12=She's Sayin' Goodbye
TTITLE13=Yearning
EXTD=
EXTT0=
EXTT1=
EXTT2=
EXTT3=
EXTT4=
EXTT5=
EXTT6=
EXTT7=
EXTT8=
EXTT9=
EXTT10=
EXTT11=
EXTT12=
EXTT13=
PLAYORDER=
